{
	"asset":{
		"generator":"Khronos glTF Blender I/O v5.2.40",
		"version":"2.0"
	},
	"scene":0,
	"scenes":[
		{
			"name":"Scene",
			"nodes":[
				0
			]
		}
	],
	"nodes":[
		{
			"mesh":0,
			"name":"Room-col"
		}
	],
	"meshes":[
		{
			"name":"Plane",
			"primitives":[
				{
					"attributes":{
						"POSITION":0,
						"NORMAL":1,
						"TEXCOORD_0":2
					},
					"indices":3
				}
			]
		}
	],
	"accessors":[
		{
			"bufferView":0,
			"componentType":5126,
			"count":460,
			"max":[
				20,
				8,
				20
			],
			"min":[
				-20,
				0,
				-20
			],
			"type":"VEC3"
		},
		{
			"bufferView":1,
			"componentType":5126,
			"count":460,
			"type":"VEC3"
		},
		{
			"bufferView":2,
			"componentType":5126,
			"count":460,
			"type":"VEC2"
		},
		{
			"bufferView":3,
			"componentType":5123,
			"count":1092,
			"type":"SCALAR"
		}
	],
	"bufferViews":[
		{
			"buffer":0,
			"byteLength":5520,
			"byteOffset":0,
			"target":34962
		},
		{
			"buffer":0,
			"byteLength":5520,
			"byteOffset":5520,
			"target":34962
		},
		{
			"buffer":0,
			"byteLength":3680,
			"byteOffset":11040,
			"target":34962
		},
		{
			"buffer":0,
			"byteLength":2184,
			"byteOffset":14720,
			"target":34963
		}
	],
	"buffers":[
		{
			"byteLength":16904,
			"uri":"room.bin"
		}
	]
}
